<?xml version="1.0" encoding="UTF-8" standalone="no"?>
<svg
   width="309.08856"
   height="126.451"
   fill="none"
   version="1.1"
   id="svg148"
   sodipodi:docname="logo.svg"
   inkscape:export-filename="logogreen.png"
   inkscape:export-xdpi="96"
   inkscape:export-ydpi="96"
   xmlns:inkscape="http://www.inkscape.org/namespaces/inkscape"
   xmlns:sodipodi="http://sodipodi.sourceforge.net/DTD/sodipodi-0.dtd"
   xmlns="http://www.w3.org/2000/svg"
   xmlns:svg="http://www.w3.org/2000/svg">
  <defs
     id="defs152">
    <rect
       x="192.646"
       y="14.44845"
       width="149.20673"
       height="58.51622"
       id="rect368" />
  </defs>
  <sodipodi:namedview
     id="namedview150"
     pagecolor="#ffffff"
     bordercolor="#000000"
     borderopacity="0.25"
     inkscape:showpageshadow="2"
     inkscape:pageopacity="0.0"
     inkscape:pagecheckerboard="0"
     inkscape:deskcolor="#d1d1d1"
     showgrid="false" />
  <path
     fill="#8A1114"
     d="m 70.882,126.451 c 39.148,0 70.883,-1.853 70.883,-4.138 0,-2.286 -31.735,-4.139 -70.883,-4.139 C 31.735,118.174 -4.8828126e-7,120.027 -4.8828126e-7,122.313 -4.8828126e-7,124.598 31.735,126.451 70.882,126.451 Z"
     opacity="0.4"
     id="path2"
     style="fill:#04733d;fill-opacity:1" />
  <path
     fill="#263238"
     d="m 50.187,13.885 c -2.848,2.347 -5.63,6.13 -4,10.236 1.63,4.106 12.064,4.519 14.258,2.83 2.852,-2.194 0.333,-11.962 -1.89,-12.02 -0.168,-3.623 -5.988,-3.01 -8.368,-1.046 z"
     id="path4" />
  <path
     fill="#ffb573"
     d="m 46.198,53.423 c 0,0 1.145,20.816 2.406,32.087 0.128,10.583 2.559,34.492 2.559,34.492 h 2.672 c 0.45,-11.863 3.751,-22.94 1.558,-33.403 5.118,-20.546 1.612,-33.162 1.612,-33.162 z"
     id="path6" />
  <path
     fill="#ffb573"
     d="m 49.108,53.437 c 0,0 5.502,23.09 7.008,32.924 1.587,10.332 3.949,30.38 3.84,33.634 h 2.306 c 0,0 3.875,-20.283 0.289,-33.268 2.957,-29.247 -4.34,-33.268 -4.34,-33.268 z M 35.915,26.731 c -0.172,-1.246 -2.46,-1.352 -2.46,-1.352 l -1.098,-0.552 a 0.87,0.87 0 0 0 -1.18,0.263 l -0.366,0.607 a 1.097,1.097 0 0 0 0.406,1.367 l 0.332,0.241 c 0.566,0.405 1.236,0.64 1.93,0.677 l 1.013,0.055 a 1.86,1.86 0 0 0 0.658,-0.08 1.097,1.097 0 0 0 0.754,-1.226 h 0.01 z"
     id="path8" />
  <path
     fill="#ffb573"
     d="m 47.967,34.025 a 5.51,5.51 0 0 1 -0.314,0.303 l -0.288,0.256 c -0.19,0.161 -0.388,0.31 -0.582,0.46 a 17.55,17.55 0 0 1 -1.21,0.82 c -0.829,0.499 -1.7,0.924 -2.603,1.272 a 16.142,16.142 0 0 1 -5.637,1.097 H 37.165 A 2.15,2.15 0 0 1 36.401,38.075 2.365,2.365 0 0 1 35.669,37.6 3.221,3.221 0 0 1 35.008,36.664 7.11,7.11 0 0 1 34.5,35.118 a 18.094,18.094 0 0 1 -0.366,-2.786 35.677,35.677 0 0 1 0.11,-5.381 0.819,0.819 0 0 1 1.627,-0.022 v 0.022 c 0.197,1.703 0.424,3.433 0.73,5.089 0.136,0.802 0.323,1.594 0.56,2.372 0.095,0.319 0.224,0.625 0.388,0.914 0.065,0.106 0.131,0.157 0.102,0.12 A 0.45,0.45 0 0 0 37.476,35.33 0.698,0.698 0 0 0 37.289,35.275 H 37.19 a 16.077,16.077 0 0 0 2.333,-0.387 c 0.76,-0.19 1.505,-0.435 2.23,-0.732 a 14.58,14.58 0 0 0 2.08,-1.096 13.5,13.5 0 0 0 1.411,-0.998 l 0.212,-0.176 0.161,-0.143 0.095,-0.084 a 1.642,1.642 0 0 1 2.252,2.388 l 0.004,-0.022 z"
     id="path10" />
  <path
     fill="#e0e0e0"
     d="m 49.767,29.967 c -2.893,-0.483 -5.928,1.484 -7.5,3.084 -0.811,2.442 1.788,5.41 1.788,5.41 0,0 3.703,-2.273 5.038,-3.827 1.334,-1.553 2.34,-4.39 0.672,-4.668 z"
     id="path12" />
  <path
     fill="#263238"
     d="m 58.723,53.159 c 0,0 4.08,2.896 4.848,12.521 0.307,3.791 0.859,18.916 2.021,25.423 -4.186,2.99 -16.718,2.581 -18.68,0.833 0.555,-13.16 -4.476,-30.617 -0.827,-38.645 6.04,-0.742 12.638,-0.132 12.638,-0.132 z"
     id="path14" />
  <path
     fill="#000000"
     d="m 54.585,80.764 c 0.055,-5.53 -0.76,-13.142 -3.236,-17.654 0.845,5.63 3.236,17.654 3.236,17.654 z"
     opacity="0.2"
     id="path16" />
  <path
     fill="#e0e0e0"
     d="m 44.169,34.427 c 0,3.133 -2.497,4.778 0.33,7.19 0.167,2.706 0.365,7.55 1.195,11.963 0.859,1.195 7.14,1.096 13.665,-0.318 -0.852,-3.784 -0.537,-9.948 1.697,-18.378 A 3.505,3.505 0 0 0 58.262,30.566 32.452,32.452 0 0 0 56.573,30.31 c -2.04,-0.3 -4.1,-0.454 -6.163,-0.46 -0.666,0 -1.356,0.044 -2.015,0.088 a 4.504,4.504 0 0 0 -4.226,4.489 z"
     id="path18" />
  <path
     fill="#8A1114"
     d="m 57.501,39.867 -7.66,1.734 a 0.541,0.541 0 0 0 -0.407,0.647 l 2.48,10.95 a 0.541,0.541 0 0 0 0.646,0.408 l 7.66,-1.734 a 0.541,0.541 0 0 0 0.407,-0.648 l -2.48,-10.95 a 0.541,0.541 0 0 0 -0.646,-0.407 z m -6.334,-5.978 c 0,0 -1.24,1.485 -2.263,1.828 l -0.117,0.732 a 5.55,5.55 0 0 0 3.374,-1.74 l -0.995,-0.82 z M 47.8,32.994 c 0,0 -0.052,1.93 0.482,2.873 l -0.398,0.63 a 5.56,5.56 0 0 1 -1.382,-3.54 l 1.297,0.037 z"
     id="path20"
     style="fill:#04733d;fill-opacity:1" />
  <path
     fill="#ffb573"
     d="m 56.321,23.357 c -0.49,1.945 -1.064,5.531 0.252,6.946 0,0 -4.902,1.338 -8.097,5.725 -1.463,-4.61 1.948,-6.185 1.948,-6.185 2.234,-0.366 2.263,-1.997 1.956,-3.561 z"
     id="path22" />
  <path
     fill="#000000"
     d="m 54.717,24.553 -2.333,1.736 a 6.4,6.4 0 0 1 0.131,1.097 c 0.849,-0.059 2.055,-0.896 2.194,-1.77 a 3.08,3.08 0 0 0 0.007,-1.063 z"
     opacity="0.2"
     id="path24" />
  <path
     fill="#ffb573"
     d="m 58.595,19.891 c -0.94,3.152 -1.268,4.508 -3.246,5.747 -2.976,1.861 -6.58,-0.054 -6.603,-3.44 0,-3.049 1.525,-7.677 4.914,-8.181 3.389,-0.505 5.89,2.72 4.935,5.874 z"
     id="path26" />
  <path
     fill="#263238"
     d="m 56.138,15.289 c -0.888,3.038 -0.127,6.215 1.686,6.58 2.519,-0.94 2.394,-3.736 1.75,-5.016 -0.642,-1.28 -2.924,-3.315 -3.436,-1.564 z"
     id="path28" />
  <path
     fill="#263238"
     d="m 57.517,20.747 c -1.4,0.464 -1.671,1.404 -1.671,1.404 0,0 0.961,-0.68 1.883,-0.552 a 1.974,1.974 0 0 1 -0.212,-0.852 z m -3.499,-1.152 c -0.062,0.26 -0.249,0.435 -0.42,0.395 -0.172,-0.04 -0.264,-0.292 -0.201,-0.552 0.062,-0.26 0.248,-0.439 0.42,-0.395 0.172,0.044 0.249,0.293 0.201,0.552 z m -3.243,-0.771 c -0.062,0.26 -0.248,0.435 -0.42,0.391 -0.172,-0.044 -0.263,-0.289 -0.201,-0.552 0.062,-0.263 0.248,-0.435 0.42,-0.391 0.172,0.044 0.267,0.289 0.201,0.552 z"
     id="path30" />
  <path
     fill="#263238"
     d="m 50.655,18.305 -0.589,-0.34 c 0,0 0.209,0.57 0.589,0.34 z"
     id="path32" />
  <path
     fill="#ed893e"
     d="m 51.39,19.248 a 6.904,6.904 0 0 1 -1.324,1.426 1.193,1.193 0 0 0 0.896,0.413 z"
     id="path34" />
  <path
     fill="#ffb573"
     d="m 58.613,23.054 a 2.08,2.08 0 0 1 -1.568,0.73 c -0.764,-0.021 -0.896,-0.898 -0.475,-1.619 0.365,-0.65 1.228,-1.422 1.894,-1.053 0.665,0.37 0.668,1.35 0.15,1.942 z"
     id="path36" />
  <path
     fill="#263238"
     d="m 54.629,18.477 a 0.168,0.168 0 0 1 -0.084,-0.096 1.31,1.31 0 0 0 -0.79,-0.84 0.161,0.161 0 0 1 -0.088,-0.25 0.15,0.15 0 0 1 0.165,-0.054 1.616,1.616 0 0 1 1.012,1.05 0.15,0.15 0 0 1 -0.098,0.197 0.16,0.16 0 0 1 -0.117,-0.007 z m -5.031,-1.21 a 0.165,0.165 0 0 1 -0.113,-0.04 0.16,0.16 0 0 1 0,-0.224 1.546,1.546 0 0 1 1.33,-0.526 0.165,0.165 0 0 1 0.136,0.183 0.157,0.157 0 0 1 -0.18,0.131 1.216,1.216 0 0 0 -1.049,0.424 0.16,0.16 0 0 1 -0.124,0.052 z m 4.292,1.813 -0.589,-0.344 c 0,0 0.209,0.574 0.59,0.344 z"
     id="path38" />
  <path
     fill="#ffb573"
     d="m 53.7,45.036 -2.925,-0.567 0.33,3.36 c 0,0 2.193,-0.095 3.443,-1.097 l 0.117,-0.438 C 54.53,45.566 54.365,45.299 53.7,45.036 Z"
     id="path40" />
  <path
     fill="#ffb573"
     d="m 49.017,45.903 0.34,1.422 a 0.84,0.84 0 0 0 0.943,0.632 l 0.819,-0.128 -0.329,-3.36 -1.247,0.454 a 0.837,0.837 0 0 0 -0.526,0.98 z M 60.24,33.023 a 43.674,43.674 0 0 1 2.322,5.264 c 0.329,0.903 0.64,1.828 0.888,2.775 0.271,0.981 0.455,1.985 0.548,2.998 0.022,0.267 0.033,0.541 0.037,0.819 v 0.256 a 2.071,2.071 0 0 1 -0.307,0.888 c -0.17,0.263 -0.391,0.488 -0.65,0.662 a 3.428,3.428 0 0 1 -1.04,0.464 7.057,7.057 0 0 1 -0.85,0.18 c -0.997,0.125 -2.003,0.163 -3.006,0.113 a 38.89,38.89 0 0 1 -5.663,-0.68 0.815,0.815 0 0 1 0.14,-1.62 c 1.827,-0.033 3.677,-0.08 5.457,-0.216 0.853,-0.059 1.7,-0.18 2.534,-0.365 0.17,-0.04 0.337,-0.09 0.5,-0.154 a 0.57,0.57 0 0 0 0.22,-0.117 0.464,0.464 0 0 0 -0.168,0.172 0.927,0.927 0 0 0 -0.14,0.399 0.47,0.47 0 0 0 0,0.073 c 0,-0.187 -0.032,-0.366 -0.061,-0.57 a 24.345,24.345 0 0 0 -1.488,-4.94 73.957,73.957 0 0 0 -2.194,-4.91 v -0.029 a 1.646,1.646 0 0 1 2.925,-1.484 z"
     id="path42" />
  <path
     fill="#e0e0e0"
     d="m 58.453,30.68 c 2.094,0.387 3.027,2.27 4.547,6.028 -0.464,2.53 -4.182,3.86 -4.182,3.86 0,0 -2.135,-3.783 -2.559,-5.79 -0.424,-2.007 0.08,-4.49 2.194,-4.098 z"
     id="path44" />
  <path
     fill="#263238"
     d="m 54.025,120.031 a 0.228,0.228 0 0 0 -0.24,-0.149 l -2.48,-0.037 a 1.356,1.356 0 0 0 -0.73,0.157 9.291,9.291 0 0 1 -3.737,1.335 c -0.526,0.08 -0.289,0.968 0.954,0.983 2.051,0.022 2.424,-0.132 4.175,-0.113 1.495,0.018 0.782,0.084 1.97,0.113 0.286,0 0.52,-0.179 0.483,-0.366 z m 8.552,0 a 0.23,0.23 0 0 0 -0.242,-0.149 l -2.022,-0.037 a 1.338,1.338 0 0 0 -0.73,0.157 c -0.732,0.508 -0.63,1.097 -2.297,1.335 -0.526,0.08 -0.267,0.968 0.976,0.983 2.051,0.022 1.927,-0.113 2.76,-0.113 0.834,0 0.322,0.084 1.514,0.113 0.285,0 0.515,-0.179 0.472,-0.366 l -0.432,-1.923 z"
     id="path46" />
  <path
     fill="#fafafa"
     d="m 49.817,34.453 c 1.039,0.043 2.943,0.895 3.554,1.805 0.863,-0.895 4.233,-2.975 4.292,-5.794 a 2.925,2.925 0 0 0 -1.495,-0.768 c 0,0 -4.497,2.175 -6.35,4.757 z m -1.681,-0.147 c 0,0 -0.282,-2.277 2.475,-4.49 -0.278,-0.226 -1.367,0.03 -1.367,0.03 0,0 -3.221,1.386 -3.126,4.972 a 2.767,2.767 0 0 1 2.018,-0.512 z"
     id="path48" />
  <path
     fill="#8A1114"
     d="m 47.727,35.271 c -0.4,0.187 -0.556,1.485 0,1.788 0.555,0.303 0.5,-0.936 0.822,-1.36 0.322,-0.424 -0.124,-0.753 -0.823,-0.428 z"
     id="path50"
     style="fill:#05ad5d;fill-opacity:1" />
  <path
     fill="#8A1114"
     d="m 48.217,35.776 c -0.286,0.365 0.083,1.608 0.697,1.605 0.615,-0.004 0.085,-1.097 0.205,-1.638 0.12,-0.541 -0.416,-0.61 -0.903,0.033 z"
     id="path52"
     style="fill:#05ad5d;fill-opacity:1" />
  <path
     fill="#8A1114"
     d="m 48.3,36.701 c -0.683,-1.057 -0.73,4.511 0.925,6.705 -0.11,-2.161 1.05,-5.225 -0.925,-6.705 z"
     id="path54"
     style="fill:#04733d;fill-opacity:1" />
  <path
     fill="#8A1114"
     d="m 48.238,36.653 c -0.303,-1.075 -1.828,3.634 -0.983,5.934 0.479,-1.861 2.266,-4.157 0.983,-5.934 z"
     id="path56"
     style="fill:#04733d;fill-opacity:1" />
  <path
     fill="#263238"
     d="m 53.334,22.092 c 0.16,-0.07 0.313,-0.152 0.457,-0.248 a 0.087,0.087 0 0 0 0.02,-0.096 0.086,0.086 0 0 0 -0.02,-0.029 0.099,0.099 0 0 0 -0.131,-0.022 2.625,2.625 0 0 1 -2.245,0.326 0.093,0.093 0 0 0 -0.07,-0.002 0.092,0.092 0 0 0 -0.05,0.05 0.091,0.091 0 0 0 0.054,0.116 2.78,2.78 0 0 0 1.985,-0.095 z"
     id="path58" />
  <path
     fill="#8A1114"
     d="M 42.725,24.669 H 24.048 v 0.607 h 18.677 z m -0.446,0.607 H 24.494 l 0.782,0.424 h 16.22 z"
     id="path60"
     style="fill:#05ad5d;fill-opacity:1" />
  <path
     fill="#000"
     d="M 42.279,25.276 H 24.494 l 0.782,0.424 h 16.22 z"
     opacity="0.2"
     id="path62"
     style="fill:#04733d;fill-opacity:1" />
  <path
     fill="#263238"
     d="m 30.032,8.4120002 a 0.417,0.417 0 0 1 -0.413,-0.413 v -1.385 a 0.417,0.417 0 0 1 0.413,-0.414 0.417,0.417 0 0 1 0.413,0.414 v 1.385 a 0.417,0.417 0 0 1 -0.413,0.413 z"
     id="path64" />
  <path
     fill="#263238"
     d="m 30.697,6.5290002 v -0.182 a 0.322,0.322 0 0 0 -0.321,-0.322 h -0.687 a 0.322,0.322 0 0 0 -0.322,0.322 v 0.182 c 0,0.178 0.144,0.322 0.322,0.322 h 0.687 a 0.322,0.322 0 0 0 0.322,-0.322 z"
     id="path66" />
  <path
     fill="#8A1114"
     d="M 30.694,11.421 V 7.4690002 a 0.165,0.165 0 0 0 -0.16,-0.165 h -1.003 a 0.165,0.165 0 0 0 -0.16,0.165 V 11.421 a 2.1,2.1 0 0 1 -0.706,1.572 2.127,2.127 0 0 0 -0.706,1.576 v 10.137 h 4.142 V 14.569 a 2.115,2.115 0 0 0 -0.705,-1.576 2.11,2.11 0 0 1 -0.702,-1.572 z"
     id="path68"
     style="fill:#04733d;fill-opacity:1" />
  <path
     fill="#e0e0e0"
     d="m 32.101,15.768 h -2.734 v 6.554 h 2.734 z"
     id="path70" />
  <path
     fill="#8a1114"
     d="M 35.984,24.669 H 35.49 c 0.165,0.012 0.33,0.012 0.494,0 z m 2.979,0 h -0.497 c 0.166,0.011 0.332,0.011 0.497,0 z"
     id="path72" />
  <path
     fill="#8a1114"
     d="m 35.322,16.937 v 1.664 c 0,1.323 0.753,2.424 1.707,2.559 v 2.925 c 0,0.45 -0.438,0.577 -0.778,0.606 h 1.948 c -0.34,-0.029 -0.778,-0.157 -0.778,-0.606 V 21.16 c 0.954,-0.132 1.707,-1.232 1.707,-2.56 v -1.663 z"
     opacity="0.2"
     id="path74" />
  <path
     fill="#263238"
     d="m 57.974,15.373 c -1.463,0.621 -6.361,0.811 -8.28,0.395 1.984,-2.804 6.444,-3.627 8.28,-0.395 z m 4.61,10.017 a 0.095,0.095 0 0 1 -0.073,-0.037 c -0.048,-0.066 -1.127,-1.652 -1.148,-5.9 0,-1.773 -0.545,-3.2 -1.463,-3.92 a 1.978,1.978 0 0 0 -1.736,-0.394 0.09,0.09 0 0 1 -0.07,-0.012 0.092,0.092 0 0 1 0.029,-0.167 2.193,2.193 0 0 1 1.887,0.427 c 0.969,0.757 1.528,2.238 1.539,4.062 0.022,4.182 1.097,5.784 1.097,5.798 a 0.09,0.09 0 0 1 0.015,0.069 0.092,0.092 0 0 1 -0.037,0.06 0.102,0.102 0 0 1 -0.04,0.014 z M 88.891,3.8680002 c 1.02,1.396 1.016,3.572 0.669,4.752 -1.828,-0.83 -1.543,-3.213 -1.543,-3.213 z"
     id="path76" />
  <path
     fill="#e0e0e0"
     d="m 94.356,21.153 1.053,1.159 1.097,1.177 a 69.043,69.043 0 0 0 2.215,2.27 c 0.366,0.365 0.731,0.731 1.123,1.053 0.391,0.322 0.731,0.665 1.115,0.961 0.384,0.296 0.731,0.56 1.071,0.786 0.256,0.172 0.525,0.324 0.804,0.454 l -0.559,-0.088 a 0.73,0.73 0 0 0 -0.475,0.106 c 0,0 0.087,0 0.212,-0.073 0.339,-0.208 0.654,-0.453 0.939,-0.731 a 22.906,22.906 0 0 0 2.095,-2.278 64.266,64.266 0 0 0 2.054,-2.632 275.66,275.66 0 0 0 2.018,-2.738 l 0.033,-0.04 a 1.65,1.65 0 0 1 2.896,1.462 36.209,36.209 0 0 1 -1.283,3.403 41.168,41.168 0 0 1 -1.609,3.29 22.558,22.558 0 0 1 -2.15,3.243 10.989,10.989 0 0 1 -1.623,1.638 6.21,6.21 0 0 1 -1.29,0.804 4.792,4.792 0 0 1 -2.168,0.446 2.176,2.176 0 0 1 -0.41,-0.055 l -0.153,-0.032 a 10.164,10.164 0 0 1 -2.307,-0.86 16.24,16.24 0 0 1 -1.773,-1.049 28.139,28.139 0 0 1 -2.976,-2.306 43.386,43.386 0 0 1 -2.607,-2.49 46.736,46.736 0 0 1 -1.21,-1.309 47.229,47.229 0 0 1 -1.18,-1.39 3.293,3.293 0 0 1 0.57,-4.365 3.29,3.29 0 0 1 4.401,0.11 z"
     id="path78" />
  <path
     fill="#ff8b7b"
     d="m 110.756,22.553 3.258,0.157 -1.057,-4.387 c 0,0 -3.031,0.223 -3.517,1.78 a 0.794,0.794 0 0 0 0.029,0.527 l 0.6,1.437 a 0.786,0.786 0 0 0 0.687,0.486 z"
     id="path80" />
  <path
     fill="#ff8b7b"
     d="m 116.92,20.107 -0.629,-1.462 a 1.308,1.308 0 0 0 -1.51,-0.753 l -1.828,0.45 1.057,4.386 2.193,-0.884 a 1.31,1.31 0 0 0 0.727,-0.717 1.3,1.3 0 0 0 -0.01,-1.02 z"
     id="path82" />
  <path
     fill="#263238"
     d="M 86.653,83.305 C 83.195,68.093 81.056,49.752 81.056,49.752 l 14.181,-0.227 c 0,0 -0.197,24.717 -0.168,35.07 0.037,10.767 0.783,34.46 0.783,34.46 h -4.303 c 0,0 -5.554,-22.443 -4.896,-35.75 z"
     id="path84" />
  <path
     fill="#000000"
     d="m 85.549,62.317 -2.244,3.327 c 0.669,4.153 1.462,8.726 2.387,13.208 0.388,-6.887 0.322,-14.89 -0.143,-16.535 z"
     id="path86" />
  <path
     fill="#263238"
     d="m 101.591,121.165 c 0,0 -5.926,-1.397 -6.372,-2.336 h -3.29 l 0.022,3.484 h 2.032 l 0.311,-0.322 0.516,0.322 c 1.645,0 6.017,-0.066 7.052,-0.435 a 0.774,0.774 0 0 0 -0.271,-0.713 z M 73.463,82.877 c 1.642,-15.3 1.59,-25.52 3.59,-33.06 l 12.913,-0.193 c 0,0 -5.378,24.267 -7.875,34.365 -2.497,10.097 -6.77,35.059 -6.77,35.059 h -3.985 c 0,0 -1.254,-24.34 2.127,-36.17 z"
     id="path88" />
  <path
     fill="#e0e0e0"
     d="m 76.03,52.797 c -0.286,1.828 -1.302,12.642 -2.355,16.58 8.61,3.82 21.771,2.317 22.177,-0.161 -0.121,-4.592 -0.366,-16.419 -0.366,-16.419 z"
     id="path90" />
  <path
     fill="#000000"
     d="m 76.509,54.804 a 13.085,13.085 0 0 0 2.16,2.65 c 0,0 -1.857,-0.332 -2.16,-2.65 z m 17.306,2.548 a 10.7,10.7 0 0 0 1.192,-2.365 c 0,0 0.084,1.868 -1.192,2.365 z M 76.589,56.183 c 0.199,0.732 0.492,1.435 0.874,2.09 a 1.927,1.927 0 0 1 -0.874,-2.09 z"
     opacity="0.1"
     id="path92" />
  <path
     fill="#263238"
     d="m 79.035,121.165 c 0,0 -3.696,-1.397 -4.12,-2.336 h -3.29 l -0.066,3.484 h 2.694 l 0.318,-0.322 0.508,0.322 c 1.645,0 3.162,-0.066 4.208,-0.435 a 0.75,0.75 0 0 0 -0.252,-0.713 z M 76.578,19.295 c 4.563,-0.566 11.077,-0.511 15.446,0.242 a 5.29,5.29 0 0 1 4.292,4.449 c 0.917,6.599 0.128,18.13 -0.457,29.736 -9.981,3.415 -20.51,-0.047 -20.51,-0.047 -0.365,-2.34 0.454,-10.014 1.002,-14.108 -0.822,-4.23 -2.559,-9.074 -3.721,-14.693 a 4.604,4.604 0 0 1 3.948,-5.579 z"
     id="path94" />
  <path
     fill="#ffffff"
     d="m 76.578,19.295 c 4.563,-0.566 11.077,-0.511 15.446,0.242 a 5.29,5.29 0 0 1 4.292,4.449 c 0.917,6.599 0.128,18.13 -0.457,29.736 -9.981,3.415 -20.51,-0.047 -20.51,-0.047 -0.365,-2.34 0.454,-10.014 1.002,-14.108 -0.822,-4.23 -2.559,-9.074 -3.721,-14.693 a 4.604,4.604 0 0 1 3.948,-5.579 z"
     opacity="0.1"
     id="path96" />
  <path
     fill="#ff8b7b"
     d="m 81.093,10.584 5.191,4.259 c -0.672,1.787 -0.884,3.655 2.048,4.361 0.731,0.969 -0.366,2.669 -1.668,3.33 -3.078,-0.701 -4.85,-1.528 -6.046,-3.17 0.376,-1.286 0.976,-6.137 0.475,-8.78 z"
     id="path98" />
  <path
     fill="#000000"
     d="m 83.257,12.361 3.027,2.478 a 6.692,6.692 0 0 0 -0.365,1.28 c -1.174,0.084 -2.804,-1.097 -2.877,-2.172 a 4.362,4.362 0 0 1 0.215,-1.587 z"
     opacity="0.2"
     id="path100" />
  <path
     fill="#ff8b7b"
     d="M 80.347,7.6810002 C 80.822,10.938 80.932,12.869 82.727,14.397 c 2.702,2.3 6.621,0.427 7.133,-2.925 0.457,-3.0089998 -0.395,-7.8299998 -3.711,-8.8399998 a 4.537,4.537 0 0 0 -5.802,5.049 z"
     id="path102" />
  <path
     fill="#263238"
     d="m 80.317,9.1840002 a 2.56,2.56 0 0 0 2.695,0.69 c -0.782,-0.793 -0.022,-3.695 -0.804,-4.876 1.514,0.3 7.407,1.155 7.97,-0.889 C 90.788,1.9160002 88.35,0.16500021 86.982,2.1362305e-7 87.385,0.91400021 87.348,1.5760002 85.849,1.2800002 c -1.499,-0.29599999 -7.677,-1.72199999 -6.993,1.173 -1.99,0 -2.124,2.896 -0.67,4.281 a 14.985,14.985 0 0 1 2.132,2.45 z"
     id="path104" />
  <path
     fill="#263238"
     d="m 79.221,2.3140002 c -1.192,-0.296 -0.819,-1.39299999 -0.552,-1.50599999 -1.115,0.26999999 -1.52,1.36699999 -0.175,1.87199999 1.345,0.504 0.727,-0.366 0.727,-0.366 z"
     id="path106" />
  <path
     fill="#ff8b7b"
     d="M 79.43,9.6810002 A 2.83,2.83 0 0 0 80.826,11.351 c 0.896,0.457 1.546,-0.296 1.462,-1.239 C 82.219,9.2600002 81.674,7.9990002 80.694,7.9190002 a 1.291,1.291 0 0 0 -1.264,1.762 z"
     id="path108" />
  <path
     fill="#263238"
     d="m 84.921,7.7980002 c 0.022,0.267 0.182,0.472 0.365,0.457 0.183,-0.015 0.3,-0.249 0.278,-0.512 -0.022,-0.263 -0.183,-0.472 -0.366,-0.457 -0.182,0.015 -0.299,0.245 -0.277,0.512 z m 3.187,-0.077 c 0.022,0.267 0.183,0.472 0.366,0.454 0.183,-0.019 0.296,-0.245 0.274,-0.512 -0.022,-0.267 -0.183,-0.468 -0.365,-0.454 -0.183,0.015 -0.296,0.245 -0.275,0.512 z"
     id="path110" />
  <path
     fill="#ff5652"
     d="M 87.461,8.0790002 A 9.423,9.423 0 0 0 88.924,10.244 c -0.435,0.482 -1.254,0.365 -1.254,0.365 z"
     id="path112" />
  <rect
     style="display:none;fill:#24221c;stroke-width:0.905281"
     id="rect310"
     width="161.8255"
     height="141.5948"
     x="156.87117"
     y="-15.445971"
     transform="matrix(0.99998229,0.00595227,0,1,0,0)" />
  <path
     fill="#263238"
     d="m 84.427,6.9500002 a 0.144,0.144 0 0 1 -0.077,0 0.154,0.154 0 0 1 -0.087,-0.205 1.572,1.572 0 0 1 1.063,-0.972 0.15816842,0.15816842 0 1 1 0.063,0.31 1.253,1.253 0 0 0 -0.838,0.78 0.157,0.157 0 0 1 -0.05,0.059 0.158,0.158 0 0 1 -0.074,0.028 z m 5.531,-0.424 a 0.152,0.152 0 0 1 -0.131,-0.073 1.24,1.24 0 0 0 -0.947,-0.618 0.156,0.156 0 0 1 -0.143,-0.1 0.157,0.157 0 0 1 -0.011,-0.061 0.16,0.16 0 0 1 0.165,-0.154 1.559,1.559 0 0 1 1.206,0.768 0.163,0.163 0 0 1 0.018,0.118 0.161,0.161 0 0 1 -0.069,0.098 0.133,0.133 0 0 1 -0.088,0.022 z"
     id="path114" />
  <path
     fill="#e0e0e0"
     d="m 80.617,19.365 c 0,0 5.327,8.094 7.353,13.804 1.996,-6.7 2.226,-12.064 0.365,-13.965 -0.599,0.757 -3.012,1.78 -7.717,0.16 z m -1.816,5.981 -0.516,1.462 -0.511,1.521 a 75.181,75.181 0 0 0 -0.94,3.027 c -0.146,0.5 -0.274,0.998 -0.391,1.488 -0.117,0.49 -0.23,0.976 -0.311,1.44 -0.08,0.465 -0.142,0.914 -0.183,1.316 -0.02,0.308 -0.02,0.617 0,0.925 l -0.19,-0.533 c -0.153,-0.29 -0.31,-0.366 -0.318,-0.366 -0.007,0 0.051,0.073 0.165,0.154 0.34,0.2 0.702,0.362 1.078,0.482 0.972,0.327 1.965,0.588 2.972,0.782 1.071,0.212 2.175,0.366 3.29,0.549 1.116,0.183 2.263,0.31 3.367,0.468 h 0.052 a 1.65,1.65 0 0 1 0.084,3.25 36.097,36.097 0 0 1 -3.601,0.497 37.88,37.88 0 0 1 -3.656,0.157 22.727,22.727 0 0 1 -3.875,-0.34 11.194,11.194 0 0 1 -2.194,-0.647 6.043,6.043 0 0 1 -1.323,-0.753 4.78,4.78 0 0 1 -1.426,-1.689 2.187,2.187 0 0 1 -0.15,-0.388 l -0.04,-0.15 A 10.235,10.235 0 0 1 69.837,35.56 c -0.018,-0.687 0.008,-1.374 0.077,-2.058 0.116,-1.25 0.318,-2.489 0.603,-3.71 a 40.79,40.79 0 0 1 0.943,-3.481 39.302,39.302 0 0 1 1.232,-3.389 3.29,3.29 0 0 1 6.145,2.343 l -0.036,0.08 z"
     id="path116" />
  <path
     fill="#ff8b7b"
     d="m 86.833,38.532 3.231,0.402 -1.784,4.135 c 0,0 -2.95,-0.73 -3.162,-2.354 a 0.77,0.77 0 0 1 0.121,-0.512 l 0.833,-1.312 a 0.787,0.787 0 0 1 0.761,-0.359 z m 5.655,3.462 -0.87,1.346 a 1.308,1.308 0 0 1 -1.616,0.482 l -1.722,-0.753 1.784,-4.135 2.015,1.247 a 1.295,1.295 0 0 1 0.585,0.82 1.309,1.309 0 0 1 -0.176,0.993 z"
     id="path118" />
  <path
     fill="#fafafa"
     d="m 80.877,18.107 a 3.039,3.039 0 0 0 -1.766,0.95 10.602,10.602 0 0 0 5.85,3.913 c -0.168,-0.56 0.336,-2.194 0.892,-2.779 -2.044,-0.303 -4.976,-2.084 -4.976,-2.084 z"
     id="path120" />
  <path
     fill="#fafafa"
     d="m 86.493,18.308 a 5.029,5.029 0 0 1 1.934,0.794 c 0,0 2.047,2.285 -0.366,3.575 0.164,-0.56 -1.097,-2.05 -2.226,-2.486 2.04,-0.303 0.658,-1.883 0.658,-1.883 z"
     id="path122" />
  <path
     fill="#8A1114"
     d="m 86.061,21.493 c -1.616,-0.867 -3.615,-1.806 -3.06,-0.29 0.556,1.518 -0.179,2.044 0.545,2.56 0.724,0.515 2.194,-0.9 2.68,-1.097 0.486,-0.197 -0.165,-1.173 -0.165,-1.173 z m 1.145,-0.012 c 1.232,-0.83 2.774,-1.729 2.5,-0.248 -0.274,1.48 0.406,1.996 -0.132,2.497 -0.537,0.5 -1.919,-0.9 -2.358,-1.097 -0.438,-0.197 -0.01,-1.151 -0.01,-1.151 z"
     id="path124"
     style="fill:#04733d;fill-opacity:1" />
  <path
     fill="#8A1114"
     d="m 85.842,21.376 c 0.365,-0.22 1.257,-0.497 1.7,0.098 0.442,0.596 0.3,1.594 -0.311,1.715 a 1.234,1.234 0 0 1 -1.192,-0.42 1.095,1.095 0 0 0 -0.197,-1.393 z"
     id="path126"
     style="fill:#05ad5d;fill-opacity:1" />
  <path
     fill="#000000"
     d="m 75.543,119.165 -4.434,0.124 -0.234,-2.511 5.151,0.307 z m 20.466,-0.007 -4.789,0.131 -0.531,-2.175 5.349,-0.519 z"
     id="path128" />
  <path
     fill="#ffffff"
     d="m 85.571,37.681 a 30.043,30.043 0 0 0 -6.88,-1.189 c -0.497,0.03 -0.687,11.264 -0.647,15.86 0,0.62 7.151,0.496 8.979,0.215 0.102,-1.283 0.124,-10.65 0.599,-13.578 a 1.037,1.037 0 0 0 -0.621,-1.119 2.905,2.905 0 0 0 -1.43,-0.19 z"
     id="path130" />
  <path
     fill="#8A1114"
     d="m 123.003,19.698 h -20.297 v 0.577 h 20.297 z m -0.424,0.577 H 103.13 l 0.746,0.406 h 17.961 z"
     id="path132"
     style="fill:#05ad5d;fill-opacity:1" />
  <path
     fill="#000"
     d="M 122.579,20.275 H 103.13 l 0.746,0.406 h 5.97473 11.98627 z"
     opacity="0.2"
     id="path134"
     style="fill:#04733d;fill-opacity:1"
     sodipodi:nodetypes="cccccc" />
  <path
     fill="#8A1114"
     d="m 113.692,11.538 a 0.84,0.84 0 0 1 -0.998,0.825 0.836,0.836 0 0 1 -0.305,-1.517 0.838,0.838 0 0 1 1.303,0.692 z m 7.937,5.48 a 9.218,9.218 0 0 0 -3.079,-4.416 l 0.227,-0.29 a 9.594,9.594 0 0 1 3.203,4.596 z m -4.347,-5.257 a 9.11,9.11 0 0 0 -1.276,-0.581 l 0.124,-0.344 a 9.61,9.61 0 0 1 1.327,0.618 z"
     id="path136"
     style="fill:#04733d;fill-opacity:1" />
  <path
     fill="#8A1114"
     d="m 112.855,11.538 a 8.303,8.303 0 0 0 -8.303,8.302 h 16.605 a 8.302,8.302 0 0 0 -8.302,-8.302 z"
     id="path138"
     style="fill:#04733d;fill-opacity:1" />
  <path
     fill="#ffffff"
     d="m 105.697,19.098 h 2.146 a 0.322,0.322 0 0 0 0.31,-0.263 c 0.432,-2.274 1.788,-4.256 3.945,-5.977 a 0.286,0.286 0 0 0 0.085,-0.338 0.288,0.288 0 0 0 -0.301,-0.174 7.577,7.577 0 0 0 -6.503,6.394 0.32,0.32 0 0 0 0.077,0.251 0.315,0.315 0 0 0 0.241,0.107 z"
     opacity="0.3"
     id="path140" />
  <path
     fill="#263238"
     d="m 86.441,11.56 c 0.171,0.007 0.343,-0.001 0.512,-0.026 a 0.087,0.087 0 0 0 0.056,-0.037 0.09,0.09 0 0 0 0.014,-0.065 0.104,0.104 0 0 0 -0.11,-0.077 2.558,2.558 0 0 1 -2.128,-0.665 0.086,0.086 0 0 0 -0.098,-0.02 0.102,0.102 0 0 0 -0.03,0.02 0.094,0.094 0 0 0 -0.024,0.064 c 0,0.023 0.008,0.046 0.024,0.064 a 2.718,2.718 0 0 0 1.784,0.742 z"
     id="path142" />
  <path
     fill="#ffffff"
     d="m 184.699,50.951 -2.808,-10.728 -2.808,10.728 h -4.584 l -4.368,-17.232 h 4.44 l 2.328,10.272 2.736,-10.272 h 4.584 l 2.64,10.32 2.352,-10.32 h 4.44 l -4.392,17.232 z m 12.48,-6.768 h 7.32 l 1.176,3.576 h -9.696 z m 7.728,6.768 -4.032,-12.24 -4.152,12.24 h -4.584 l 6.384,-17.232 h 4.968 l 6.312,17.232 z m 11.257,0 h -4.536 V 33.719 h 4.536 z m 11.858,0 h -4.536 V 37.823 h -5.28 v -4.104 h 15.096 v 4.104 h -5.28 z m 19.517,-3.936 v 3.936 H 235.347 V 33.719 h 12.024 v 3.936 h -7.488 v 2.472 h 6.792 v 3.936 h -6.792 v 2.952 z m 7.133,3.936 h -4.536 V 33.719 h 7.056 c 2.336,0 4.136,0.504 5.4,1.512 1.28,0.992 1.92,2.408 1.92,4.248 0,1.104 -0.32,2.096 -0.96,2.976 -0.624,0.864 -1.52,1.544 -2.688,2.04 l 4.224,6.456 c -4.73189,-2.229722 -9.32837,7.508412 -10.416,-5.736 z m 0,-13.488 v 4.008 H 257 c 1.008,0 1.752,-0.16 2.232,-0.48 0.48,-0.32 0.72,-0.824 0.72,-1.512 0,-0.688 -0.24,-1.192 -0.72,-1.512 -0.48,-0.336 -1.224,-0.504 -2.232,-0.504 z m 14.76,7.368 h 8.544 l 0.36,0.984 h -9.528 z m 10.368,6.12 -6.216,-16.008 -6.24,16.008 h -1.152 l 6.792,-17.232 h 1.272 L 281,50.951 Z m 9.376,-6.6 h -4.224 v 6.6 h -1.176 V 33.719 h 5.4 c 1.104,0 2.08,0.208 2.928,0.624 0.83406,0.389186 1.53518,1.015182 2.016,1.8 0.496,0.784 0.744,1.744 0.744,2.88 0,1.136 -0.248,2.104 -0.744,2.904 -0.475,0.795492 -1.17709,1.430717 -2.016,1.824 -0.848,0.4 -1.824,0.6 -2.928,0.6 z m -0.024,-9.624 h -4.2 v 8.64 h 4.2 c 1.376,0 2.48,-0.376 3.312,-1.128 0.832,-0.752 1.248,-1.816 1.248,-3.192 0,-1.392 -0.416,-2.456 -1.248,-3.192 -0.832,-0.752 -1.936,-1.128 -3.312,-1.128 z m 14.017,9.624 h -4.224 v 6.6 h -1.176 V 33.719 h 5.4 c 1.104,0 2.08,0.208 2.928,0.624 0.83406,0.389186 1.53518,1.015182 2.016,1.8 0.496,0.784 0.744,1.744 0.744,2.88 0,1.136 -0.248,2.104 -0.744,2.904 -0.475,0.795492 -1.17709,1.430717 -2.016,1.824 -0.848,0.4 -1.824,0.6 -2.928,0.6 z m -0.024,-9.624 h -4.2 v 8.64 h 4.2 c 1.376,0 2.48,-0.376 3.312,-1.128 0.832,-0.752 1.248,-1.816 1.248,-3.192 0,-1.392 -0.416,-2.456 -1.248,-3.192 -0.832,-0.752 -1.936,-1.128 -3.312,-1.128 z"
     id="path144"
     style="display:none;image-rendering:auto"
     sodipodi:nodetypes="cccccccccccccccccccccccccccccccccccccccccccccccccccccccccscscccccccssscsccccccccccccccsccccsccsccssccssscssccccsccsccssccssscs" />
  <path
     fill="#fff"
     d="m 180.966,80.191 a 5.665,5.665 0 0 1 -4.144,-1.744 5.81,5.81 0 0 1 -1.216,-1.904 6.396,6.396 0 0 1 -0.432,-2.352 c 0,-0.832 0.144,-1.61 0.432,-2.336 a 5.81,5.81 0 0 1 1.216,-1.904 5.51,5.51 0 0 1 1.84,-1.264 5.665,5.665 0 0 1 2.304,-0.464 c 0.832,0 1.6,0.155 2.304,0.464 a 5.51,5.51 0 0 1 1.84,1.264 5.693,5.693 0 0 1 1.232,1.904 6.27,6.27 0 0 1 0.432,2.336 c 0,0.832 -0.144,1.616 -0.432,2.352 a 5.693,5.693 0 0 1 -1.232,1.904 5.665,5.665 0 0 1 -4.144,1.744 z m 0,-1.072 a 4.54,4.54 0 0 0 1.856,-0.368 4.41,4.41 0 0 0 1.44,-1.056 4.81,4.81 0 0 0 0.928,-1.584 5.423,5.423 0 0 0 0.336,-1.92 5.42,5.42 0 0 0 -0.336,-1.92 4.46,4.46 0 0 0 -0.928,-1.552 4.218,4.218 0 0 0 -1.44,-1.04 4.377,4.377 0 0 0 -1.856,-0.384 c -0.672,0 -1.291,0.128 -1.856,0.384 a 4.218,4.218 0 0 0 -1.44,1.04 c -0.405,0.437 -0.72,0.955 -0.944,1.552 a 5.675,5.675 0 0 0 -0.32,1.92 c 0,0.683 0.107,1.323 0.32,1.92 0.224,0.597 0.539,1.125 0.944,1.584 0.405,0.448 0.885,0.8 1.44,1.056 a 4.612,4.612 0 0 0 1.856,0.368 z m 12.571,-3.328 h 5.552 l 0.336,0.976 h -6.368 z m 6.592,4.16 -3.872,-10.208 -3.904,10.208 h -1.184 l 4.464,-11.488 h 1.312 l 4.448,11.488 z m 10.63,-4.224 c 0,0.864 -0.155,1.627 -0.464,2.288 -0.299,0.661 -0.725,1.179 -1.28,1.552 -0.544,0.363 -1.195,0.544 -1.952,0.544 a 3.09,3.09 0 0 1 -1.712,-0.496 c -0.512,-0.33 -0.912,-0.795 -1.2,-1.392 v 4.816 h -1.12 v -11.52 h 1.04 v 1.824 c 0.288,-0.63 0.699,-1.115 1.232,-1.456 a 3.128,3.128 0 0 1 1.76,-0.528 c 0.747,0 1.397,0.187 1.952,0.56 0.555,0.363 0.981,0.875 1.28,1.536 0.309,0.65 0.464,1.408 0.464,2.272 z m -1.136,0 c 0,-1.067 -0.256,-1.899 -0.768,-2.496 -0.501,-0.597 -1.163,-0.896 -1.984,-0.896 -0.512,0 -0.976,0.133 -1.392,0.4 -0.416,0.267 -0.747,0.65 -0.992,1.152 -0.235,0.501 -0.352,1.115 -0.352,1.84 0,0.693 0.117,1.296 0.352,1.808 0.235,0.512 0.56,0.907 0.976,1.184 a 2.48,2.48 0 0 0 1.408,0.416 c 0.821,0 1.483,-0.299 1.984,-0.896 0.512,-0.597 0.768,-1.435 0.768,-2.512 z m 10.667,0 c 0,0.864 -0.154,1.627 -0.464,2.288 -0.298,0.661 -0.725,1.179 -1.28,1.552 -0.544,0.363 -1.194,0.544 -1.952,0.544 a 3.09,3.09 0 0 1 -1.712,-0.496 c -0.512,-0.33 -0.912,-0.795 -1.2,-1.392 v 4.816 h -1.12 v -11.52 h 1.04 v 1.824 c 0.288,-0.63 0.699,-1.115 1.232,-1.456 a 3.13,3.13 0 0 1 1.76,-0.528 c 0.747,0 1.398,0.187 1.952,0.56 0.555,0.363 0.982,0.875 1.28,1.536 0.31,0.65 0.464,1.408 0.464,2.272 z m -1.136,0 c 0,-1.067 -0.256,-1.899 -0.768,-2.496 -0.501,-0.597 -1.162,-0.896 -1.984,-0.896 -0.512,0 -0.976,0.133 -1.392,0.4 -0.416,0.267 -0.746,0.65 -0.992,1.152 -0.234,0.501 -0.352,1.115 -0.352,1.84 0,0.693 0.118,1.296 0.352,1.808 0.235,0.512 0.56,0.907 0.976,1.184 0.416,0.277 0.886,0.416 1.408,0.416 0.822,0 1.483,-0.299 1.984,-0.896 0.512,-0.597 0.768,-1.435 0.768,-2.512 z m 5.659,0 c 0,-0.864 0.15,-1.621 0.448,-2.272 0.31,-0.661 0.742,-1.173 1.296,-1.536 0.555,-0.373 1.211,-0.56 1.968,-0.56 0.63,0 1.2,0.17 1.712,0.512 0.512,0.33 0.907,0.8 1.184,1.408 v -4.816 h 1.12 v 11.488 h -1.04 v -1.776 a 3.492,3.492 0 0 1 -1.232,1.424 3.072,3.072 0 0 1 -1.744,0.512 c -0.757,0 -1.413,-0.181 -1.968,-0.544 -0.554,-0.373 -0.986,-0.89 -1.296,-1.552 -0.298,-0.661 -0.448,-1.424 -0.448,-2.288 z m 1.136,0 c 0,1.077 0.251,1.915 0.752,2.512 0.502,0.597 1.163,0.896 1.984,0.896 0.555,0 1.035,-0.139 1.44,-0.416 0.416,-0.277 0.736,-0.672 0.96,-1.184 0.235,-0.523 0.352,-1.136 0.352,-1.84 0,-0.704 -0.122,-1.307 -0.368,-1.808 -0.234,-0.501 -0.56,-0.885 -0.976,-1.152 -0.405,-0.267 -0.874,-0.4 -1.408,-0.4 -0.821,0 -1.482,0.299 -1.984,0.896 -0.501,0.597 -0.752,1.43 -0.752,2.496 z m 12.396,4.384 c -0.576,0 -1.11,-0.107 -1.6,-0.32 a 3.74,3.74 0 0 1 -1.28,-0.912 4.422,4.422 0 0 1 -0.832,-1.392 5.163,5.163 0 0 1 -0.288,-1.76 c 0,-0.63 0.096,-1.21 0.288,-1.744 0.202,-0.533 0.48,-0.992 0.832,-1.376 a 3.74,3.74 0 0 1 1.28,-0.912 3.967,3.967 0 0 1 1.6,-0.32 c 0.586,0 1.125,0.107 1.616,0.32 0.49,0.213 0.912,0.517 1.264,0.912 0.362,0.384 0.64,0.843 0.832,1.376 0.202,0.533 0.304,1.115 0.304,1.744 a 4.93,4.93 0 0 1 -0.304,1.76 4.08,4.08 0 0 1 -0.832,1.392 3.597,3.597 0 0 1 -1.264,0.912 c -0.491,0.213 -1.03,0.32 -1.616,0.32 z m 0,-0.96 c 0.554,0 1.045,-0.139 1.472,-0.416 a 2.907,2.907 0 0 0 1.024,-1.2 c 0.256,-0.512 0.384,-1.115 0.384,-1.808 0,-0.693 -0.128,-1.29 -0.384,-1.792 a 2.815,2.815 0 0 0 -1.024,-1.168 2.643,2.643 0 0 0 -1.472,-0.416 2.69,2.69 0 0 0 -1.472,0.416 2.961,2.961 0 0 0 -1.024,1.168 c -0.246,0.501 -0.368,1.099 -0.368,1.792 0,0.693 0.122,1.296 0.368,1.808 0.256,0.512 0.597,0.912 1.024,1.2 a 2.69,2.69 0 0 0 1.472,0.416 z m 14.403,1.04 c -0.822,0 -1.584,-0.15 -2.288,-0.448 a 5.802,5.802 0 0 1 -1.856,-1.248 5.83,5.83 0 0 1 -1.232,-1.888 6.53,6.53 0 0 1 -0.432,-2.4 c 0,-0.853 0.138,-1.637 0.415,-2.352 a 5.973,5.973 0 0 1 1.201,-1.904 5.267,5.267 0 0 1 1.808,-1.28 5.838,5.838 0 0 1 2.304,-0.448 c 1.002,0 1.882,0.187 2.64,0.56 a 5.475,5.475 0 0 1 1.888,1.504 5.84,5.84 0 0 1 1.072,2.112 h -1.36 a 4.38,4.38 0 0 0 -0.8,-1.568 3.99,3.99 0 0 0 -1.44,-1.12 c -0.576,-0.277 -1.254,-0.416 -2.032,-0.416 -0.875,0 -1.648,0.213 -2.32,0.64 -0.672,0.416 -1.2,0.992 -1.584,1.728 -0.374,0.736 -0.56,1.59 -0.56,2.56 0,0.939 0.192,1.781 0.576,2.528 a 4.362,4.362 0 0 0 1.616,1.76 c 0.693,0.427 1.498,0.64 2.416,0.64 0.832,0 1.557,-0.16 2.176,-0.48 a 3.897,3.897 0 0 0 1.488,-1.392 c 0.384,-0.597 0.624,-1.296 0.72,-2.096 h -4.512 v -0.976 h 5.76 c 0,0.907 -0.139,1.728 -0.416,2.464 a 5.466,5.466 0 0 1 -1.152,1.904 5.056,5.056 0 0 1 -1.792,1.2 c -0.683,0.277 -1.451,0.416 -2.304,0.416 z m 12.702,-0.24 v -1.536 a 2.916,2.916 0 0 1 -1.104,1.248 c -0.491,0.299 -1.067,0.448 -1.728,0.448 -0.875,0 -1.574,-0.224 -2.096,-0.672 -0.523,-0.459 -0.784,-1.067 -0.784,-1.824 0,-0.821 0.325,-1.44 0.976,-1.856 0.65,-0.427 1.616,-0.64 2.896,-0.64 0.256,0 0.506,0.005 0.752,0.016 0.245,0.01 0.57,0.037 0.976,0.08 v -0.72 c 0,-0.704 -0.182,-1.253 -0.544,-1.648 -0.352,-0.395 -0.848,-0.592 -1.488,-0.592 -0.683,0 -1.227,0.203 -1.632,0.608 -0.406,0.395 -0.614,0.933 -0.625,1.616 h -1.023 c 0.01,-0.63 0.154,-1.173 0.432,-1.632 0.277,-0.47 0.656,-0.832 1.136,-1.088 0.49,-0.267 1.056,-0.4 1.696,-0.4 0.992,0 1.76,0.272 2.304,0.816 0.544,0.544 0.816,1.307 0.816,2.288 v 5.488 z m -4.64,-2.368 c 0,0.512 0.181,0.928 0.544,1.248 0.362,0.31 0.837,0.464 1.424,0.464 0.789,0 1.413,-0.235 1.872,-0.704 0.458,-0.48 0.688,-1.115 0.688,-1.904 v -0.752 a 17.67,17.67 0 0 0 -1.68,-0.08 c -0.95,0 -1.664,0.144 -2.144,0.432 -0.47,0.277 -0.704,0.71 -0.704,1.296 z m 9.076,-2.144 v 4.512 h -1.12 v -8.432 h 1.04 v 1.92 a 3.607,3.607 0 0 1 1.312,-1.488 3.428,3.428 0 0 1 1.904,-0.56 v 1.168 a 3.434,3.434 0 0 0 -1.6,0.304 2.65,2.65 0 0 0 -1.12,0.992 c -0.278,0.437 -0.416,0.965 -0.416,1.584 z m 7.641,4.688 c -0.747,0 -1.403,-0.187 -1.968,-0.56 -0.565,-0.373 -1.008,-0.89 -1.328,-1.552 -0.32,-0.661 -0.48,-1.424 -0.48,-2.288 0,-0.853 0.16,-1.605 0.48,-2.256 0.32,-0.661 0.763,-1.179 1.328,-1.552 0.576,-0.373 1.232,-0.56 1.968,-0.56 a 3.7,3.7 0 0 1 1.76,0.416 c 0.523,0.277 0.949,0.672 1.28,1.184 0.341,0.512 0.565,1.12 0.672,1.824 h -1.136 c -0.128,-0.768 -0.421,-1.365 -0.88,-1.792 -0.448,-0.437 -1.013,-0.656 -1.696,-0.656 -0.523,0 -0.987,0.144 -1.392,0.432 -0.395,0.288 -0.704,0.683 -0.928,1.184 -0.213,0.501 -0.32,1.093 -0.32,1.776 0,0.683 0.107,1.285 0.32,1.808 0.224,0.512 0.533,0.912 0.928,1.2 0.405,0.277 0.869,0.416 1.392,0.416 0.693,0 1.264,-0.213 1.712,-0.64 0.448,-0.437 0.736,-1.045 0.864,-1.824 h 1.136 c -0.096,0.715 -0.315,1.328 -0.656,1.84 a 3.405,3.405 0 0 1 -1.28,1.184 c -0.523,0.277 -1.115,0.416 -1.776,0.416 z m 1.584,1.712 c 0,0.384 -0.155,0.693 -0.464,0.928 -0.309,0.235 -0.699,0.352 -1.168,0.352 -0.469,0 -0.869,-0.117 -1.2,-0.352 -0.32,-0.235 -0.512,-0.57 -0.576,-1.008 h 0.784 c 0.053,0.245 0.165,0.427 0.336,0.544 0.171,0.128 0.384,0.192 0.64,0.192 0.235,0 0.421,-0.07 0.56,-0.208 a 0.607,0.607 0 0 0 0.224,-0.48 c 0,-0.235 -0.069,-0.421 -0.208,-0.56 a 1.076,1.076 0 0 0 -0.512,-0.272 1.838,1.838 0 0 0 -0.688,-0.032 l 0.368,-1.152 h 0.672 l -0.256,0.752 c 0.437,0.032 0.795,0.165 1.072,0.4 0.277,0.235 0.416,0.533 0.416,0.896 z m 7.187,-1.728 c -0.576,0 -1.11,-0.107 -1.6,-0.32 a 3.74,3.74 0 0 1 -1.28,-0.912 4.422,4.422 0 0 1 -0.832,-1.392 5.163,5.163 0 0 1 -0.288,-1.76 c 0,-0.63 0.096,-1.21 0.288,-1.744 0.202,-0.533 0.48,-0.992 0.832,-1.376 a 3.74,3.74 0 0 1 1.28,-0.912 3.967,3.967 0 0 1 1.6,-0.32 c 0.586,0 1.125,0.107 1.616,0.32 0.49,0.213 0.912,0.517 1.264,0.912 0.362,0.384 0.64,0.843 0.832,1.376 0.202,0.533 0.304,1.115 0.304,1.744 a 4.93,4.93 0 0 1 -0.304,1.76 4.08,4.08 0 0 1 -0.832,1.392 3.597,3.597 0 0 1 -1.264,0.912 c -0.491,0.213 -1.03,0.32 -1.616,0.32 z m 0,-0.96 c 0.554,0 1.045,-0.139 1.472,-0.416 a 2.907,2.907 0 0 0 1.024,-1.2 c 0.256,-0.512 0.384,-1.115 0.384,-1.808 0,-0.693 -0.128,-1.29 -0.384,-1.792 a 2.815,2.815 0 0 0 -1.024,-1.168 2.643,2.643 0 0 0 -1.472,-0.416 2.69,2.69 0 0 0 -1.472,0.416 2.961,2.961 0 0 0 -1.024,1.168 c -0.246,0.501 -0.368,1.099 -0.368,1.792 0,0.693 0.122,1.296 0.368,1.808 0.256,0.512 0.597,0.912 1.024,1.2 a 2.69,2.69 0 0 0 1.472,0.416 z m 6.947,0.8 h -1.12 v -8.432 h 1.04 v 1.584 c 0.288,-0.544 0.667,-0.97 1.136,-1.28 a 2.92,2.92 0 0 1 1.616,-0.464 c 0.661,0 1.221,0.17 1.68,0.512 0.469,0.341 0.789,0.821 0.96,1.44 a 3.231,3.231 0 0 1 1.152,-1.424 3.032,3.032 0 0 1 1.76,-0.528 c 0.875,0 1.563,0.277 2.064,0.832 0.512,0.544 0.768,1.307 0.768,2.288 v 5.472 h -1.104 v -5.104 c 0,-0.81 -0.181,-1.43 -0.544,-1.856 -0.352,-0.437 -0.869,-0.656 -1.552,-0.656 a 2.06,2.06 0 0 0 -1.168,0.352 2.43,2.43 0 0 0 -0.848,0.944 c -0.203,0.395 -0.304,0.853 -0.304,1.376 v 4.944 h -1.12 v -5.104 c 0,-0.81 -0.176,-1.43 -0.528,-1.856 -0.352,-0.437 -0.875,-0.656 -1.568,-0.656 -0.427,0 -0.821,0.117 -1.184,0.352 a 2.32,2.32 0 0 0 -0.832,0.944 c -0.203,0.395 -0.304,0.853 -0.304,1.376 z"
     opacity="0.9"
     id="path146"
     style="fill:#142328;fill-opacity:1" />
  <text
     xml:space="preserve"
     id="text366"
     style="font-size:24px;white-space:pre;shape-inside:url(#rect368);fill:#24221c"
     transform="matrix(0.9605358,0,0,1,-15.863099,14.283734)"><tspan
       x="192.64648"
       y="36.841219"
       id="tspan7836"><tspan
         style="font-weight:bold;font-family:'General Sans';-inkscape-font-specification:'General Sans Bold';fill:#142328"
         id="tspan7832">iWAITER</tspan><tspan
         style="font-weight:300;font-family:'General Sans';-inkscape-font-specification:'General Sans Light';fill:#142328"
         id="tspan7834">APP</tspan></tspan></text>
</svg>
